<?xml version="1.0" encoding="UTF-8"?>
<svg version="1.1" xmlns="http://www.w3.org/2000/svg" xmlns:xlink="http://www.w3.org/1999/xlink">
<defs>

</defs>
<symbol id="i-location-disable" xmlns="http://www.w3.org/2000/svg" xmlns:xlink="http://www.w3.org/1999/xlink" viewBox="0 0 324 273"><g fill="none" fill-rule="evenodd"><mask id="b" fill="#fff"><path d="M19 0h286c10.493 0 19 8.507 19 19v235c0 10.493-8.507 19-19 19H19c-10.493 0-19-8.507-19-19V19C0 8.507 8.507 0 19 0z" fill="#FFF"/></mask><path d="M19 0h286c10.493 0 19 8.507 19 19v235c0 10.493-8.507 19-19 19H19c-10.493 0-19-8.507-19-19V19C0 8.507 8.507 0 19 0z" fill="#FFF"/><g mask="url(#b)"><g fill="#E9EAEA" transform="rotate(51 234.155 133.052)"><rect width="34.072" height="34.072" x="116.077" rx="10.972"/><rect width="34.072" height="34.072" x="154.77" rx="10.972"/><rect width="34.072" height="34.072" x="232.155" rx="10.972"/><g transform="translate(0 38.692)"><rect width="34.072" height="34.072" x="154.77" rx="10.972"/><rect width="34.072" height="34.072" x="193.462" rx="10.972"/><rect width="34.072" height="34.072" x="270.847" rx="10.972"/></g><g transform="translate(0 77.385)"><rect width="34.072" height="34.072" x="77.385" rx="10.972"/><rect width="34.072" height="34.072" x="116.077" rx="10.972"/><rect width="34.072" height="34.072" x="193.462" rx="10.972"/><rect width="34.072" height="34.072" x="232.155" rx="10.972"/><rect width="34.072" height="34.072" x="270.847" rx="10.972"/><rect width="34.072" height="34.072" x="309.54" rx="10.972"/><rect width="34.072" height="34.072" x="348.232" rx="10.972"/></g><g transform="translate(0 116.077)"><rect width="34.072" height="34.072" x="38.692" rx="10.972"/><rect width="34.072" height="34.072" x="77.385" rx="10.972"/><rect width="34.072" height="34.072" x="116.077" rx="10.972"/><rect width="34.072" height="34.072" x="232.155" rx="10.972"/><rect width="34.072" height="34.072" x="309.54" rx="10.972"/><rect width="34.072" height="34.072" x="348.232" rx="10.972"/></g><g transform="translate(0 154.77)"><rect width="34.072" height="34.072" rx="10.972"/><rect width="34.072" height="34.072" x="309.54" rx="10.972"/></g><g transform="translate(0 193.462)"><rect width="34.072" height="34.072" rx="10.972"/><rect width="34.072" height="34.072" x="38.692" rx="10.972"/><rect width="34.072" height="34.072" x="116.077" rx="10.972"/><rect width="34.072" height="34.072" x="154.77" rx="10.972"/><rect width="34.072" height="34.072" x="193.462" rx="10.972"/><rect width="34.072" height="34.072" x="232.155" rx="10.972"/><rect width="34.072" height="34.072" x="309.54" rx="10.972"/><rect width="34.072" height="34.072" x="348.232" rx="10.972"/></g><g transform="translate(0 232.155)"><rect width="34.072" height="34.072" rx="10.972"/><rect width="34.072" height="34.072" x="38.692" rx="10.972"/><rect width="34.072" height="34.072" x="77.385" rx="10.972"/><rect width="34.072" height="34.072" x="154.77" rx="10.972"/><rect width="34.072" height="34.072" x="193.462" rx="10.972"/><rect width="34.072" height="34.072" x="270.847" rx="10.972"/><rect width="34.072" height="34.072" x="309.54" rx="10.972"/></g><g transform="translate(0 270.847)"><rect width="34.072" height="34.072" rx="10.972"/><rect width="34.072" height="34.072" x="77.385" rx="10.972"/><rect width="34.072" height="34.072" x="116.077" rx="10.972"/><rect width="34.072" height="34.072" x="193.462" rx="10.972"/><rect width="34.072" height="34.072" x="232.155" rx="10.972"/><rect width="34.072" height="34.072" x="270.847" rx="10.972"/></g><g transform="translate(0 309.54)"><rect width="34.072" height="34.072" x="77.385" rx="10.972"/><rect width="34.072" height="34.072" x="116.077" rx="10.972"/><rect width="34.072" height="34.072" x="154.77" rx="10.972"/><rect width="34.072" height="34.072" x="232.155" rx="10.972"/><rect width="34.072" height="34.072" x="270.847" rx="10.972"/></g><g transform="translate(0 348.232)"><rect width="34.072" height="34.072" x="116.077" rx="10.972"/><rect width="34.072" height="34.072" x="154.77" rx="10.972"/><rect width="34.072" height="34.072" x="193.462" rx="10.972"/><rect width="34.072" height="34.072" x="232.155" rx="10.972"/></g></g></g><path fill="#303030" d="M-418-255h1498v939H-418z" mask="url(#b)" opacity=".323"/></g></symbol>
<symbol id="i-location" xmlns="http://www.w3.org/2000/svg" xmlns:xlink="http://www.w3.org/1999/xlink" viewBox="0 0 324 273"><g fill="none" fill-rule="evenodd"><mask id="b" fill="#fff"><path d="M19 0h286c10.493 0 19 8.507 19 19v235c0 10.493-8.507 19-19 19H19c-10.493 0-19-8.507-19-19V19C0 8.507 8.507 0 19 0z" fill="#FFF"/></mask><path d="M19 0h286c10.493 0 19 8.507 19 19v235c0 10.493-8.507 19-19 19H19c-10.493 0-19-8.507-19-19V19C0 8.507 8.507 0 19 0z" fill="#FFF"/><g mask="url(#b)"><g fill="#E9EAEA" transform="rotate(-26 57.384 229.472)"><rect width="34.072" height="34.072" x="77.385" rx="10.972"/><rect width="34.072" height="34.072" x="116.077" rx="10.972"/><rect width="34.072" height="34.072" x="154.77" rx="10.972"/><g transform="translate(0 38.692)"><rect width="34.072" height="34.072" x="38.692" rx="10.972"/><rect width="34.072" height="34.072" x="77.385" rx="10.972"/><rect width="34.072" height="34.072" x="154.77" rx="10.972"/><rect width="34.072" height="34.072" x="193.462" rx="10.972"/><rect width="34.072" height="34.072" x="232.155" rx="10.972"/></g><g transform="translate(0 77.385)"><rect width="34.072" height="34.072" x="77.385" rx="10.972"/><rect width="34.072" height="34.072" x="116.077" rx="10.972"/><rect width="34.072" height="34.072" x="193.462" rx="10.972"/><rect width="34.072" height="34.072" x="232.155" rx="10.972"/><rect width="34.072" height="34.072" x="270.847" rx="10.972"/><rect width="34.072" height="34.072" x="309.54" rx="10.972"/></g><g transform="translate(0 116.077)"><rect width="34.072" height="34.072" rx="10.972"/><rect width="34.072" height="34.072" x="38.692" rx="10.972"/><rect width="34.072" height="34.072" x="77.385" rx="10.972"/><rect width="34.072" height="34.072" x="116.077" rx="10.972"/><rect width="34.072" height="34.072" x="232.155" rx="10.972"/><rect width="34.072" height="34.072" x="309.54" rx="10.972"/><rect width="34.072" height="34.072" x="348.232" rx="10.972"/></g><g transform="translate(0 154.77)"><rect width="34.072" height="34.072" rx="10.972"/><rect width="34.072" height="34.072" x="309.54" rx="10.972"/></g><g transform="translate(0 193.462)"><rect width="34.072" height="34.072" rx="10.972"/><rect width="34.072" height="34.072" x="38.692" rx="10.972"/><rect width="34.072" height="34.072" x="116.077" rx="10.972"/><rect width="34.072" height="34.072" x="154.77" rx="10.972"/><rect width="34.072" height="34.072" x="193.462" rx="10.972"/><rect width="34.072" height="34.072" x="232.155" rx="10.972"/><rect width="34.072" height="34.072" x="309.54" rx="10.972"/><rect width="34.072" height="34.072" x="348.232" rx="10.972"/></g><g transform="translate(0 232.155)"><rect width="34.072" height="34.072" rx="10.972"/><rect width="34.072" height="34.072" x="38.692" rx="10.972"/><rect width="34.072" height="34.072" x="77.385" rx="10.972"/><rect width="34.072" height="34.072" x="154.77" rx="10.972"/><rect width="34.072" height="34.072" x="193.462" rx="10.972"/><rect width="34.072" height="34.072" x="232.155" rx="10.972"/><rect width="34.072" height="34.072" x="270.847" rx="10.972"/><rect width="34.072" height="34.072" x="309.54" rx="10.972"/><rect width="34.072" height="34.072" x="348.232" rx="10.972"/></g><g transform="translate(0 270.847)"><rect width="34.072" height="34.072" x="77.385" rx="10.972"/><rect width="34.072" height="34.072" x="116.077" rx="10.972"/><rect width="34.072" height="34.072" x="154.77" rx="10.972"/><rect width="34.072" height="34.072" x="193.462" rx="10.972"/><rect width="34.072" height="34.072" x="232.155" rx="10.972"/><rect width="34.072" height="34.072" x="270.847" rx="10.972"/><rect width="34.072" height="34.072" x="309.54" rx="10.972"/></g><g transform="translate(0 309.54)"><rect width="34.072" height="34.072" x="116.077" rx="10.972"/><rect width="34.072" height="34.072" x="154.77" rx="10.972"/><rect width="34.072" height="34.072" x="232.155" rx="10.972"/><rect width="34.072" height="34.072" x="270.847" rx="10.972"/><rect width="34.072" height="34.072" x="309.54" rx="10.972"/></g><g transform="translate(0 348.232)"><rect width="34.072" height="34.072" x="193.462" rx="10.972"/><rect width="34.072" height="34.072" x="232.155" rx="10.972"/><rect width="34.072" height="34.072" x="270.847" rx="10.972"/></g></g></g></g></symbol>
<symbol id="i-lock" xmlns="http://www.w3.org/2000/svg" viewBox="0 0 32 35"><g fill="none" fill-rule="evenodd"><path stroke="#000" stroke-width="4.212" d="M16.104 2.136c-4.751 0-8.611 3.86-8.611 8.61v3.37H5.62A2.64 2.64 0 003 16.737v13.479a2.64 2.64 0 002.62 2.62h20.967a2.64 2.64 0 002.621-2.62V16.737a2.64 2.64 0 00-2.62-2.62h-1.873v-3.37c0-4.751-3.86-8.611-8.611-8.611h0z"/><path fill="#000" fill-rule="nonzero" d="M15.87 20.72c-1.283 0-2.34 1.098-2.34 2.43 0 .552.218 1.033.52 1.443v1.257c0 1.033.825 1.89 1.82 1.89.995 0 1.82-.857 1.82-1.89v-1.257c.302-.41.52-.89.52-1.443 0-1.332-1.057-2.43-2.34-2.43z"/><path stroke="#000" stroke-width="4.212" d="M7.493 14.116h17.222"/></g></symbol>
</svg>